<?xml version="1.0" standalone="yes"?>
<svg xmlns="http://www.w3.org/2000/svg" width="500" height="500">
<path style="fill:#ffffff; stroke:none;" d="M0 0L0 500L500 500L500 0L0 0z"/>
<path style="fill:#cff1c0; stroke:none;" d="M66 166L66 167L93 167C87.4663 162.808 72.4903 164.082 66 166M305 165L306 166L305 165z"/>
<path style="fill:#b2e99b; stroke:none;" d="M305 166L305 167L318 166L305 166z"/>
<path style="fill:#98e179; stroke:none;" d="M318 165L318 166L324 166L318 165z"/>
<path style="fill:#7fd957; stroke:none;" d="M306 166L306 167C319.843 167.45 315 190.093 315 200C315 203.763 316.012 209.417 313.972 212.772C311.972 216.062 307.447 216.533 304 217L304 218C315.677 218 331.245 220.584 341.999 215.16C355.012 208.599 351.605 193.538 340 188C348.017 181.836 351.441 170.733 339 166.804C328.722 163.558 316.619 166 306 166z"/>
<path style="fill:#98e179; stroke:none;" d="M330 165L330 166L333 166L330 165z"/>
<path style="fill:#b2e99b; stroke:none;" d="M333 165L334 166L333 165z"/>
<path style="fill:#cff1c0; stroke:none;" d="M334.667 165.333L335.333 165.667L334.667 165.333z"/>
<path style="fill:#7fd957; stroke:none;" d="M67 166L67 167C70.5974 167.402 73.7583 168.363 75.2577 172.044C76.8055 175.843 76 180.98 76 185C76 195.171 80.2041 214.328 67 217L67 218C75.9325 218 96.0496 221.795 103.61 216.972C106.921 214.86 108.559 209.462 110 206L109 206C106.959 208.671 104.897 211.446 101.996 213.258C99.5147 214.807 96.8428 214.957 94 214.996C77.1284 215.23 82 198.942 82 186C82 181.545 80.6175 174.172 83.0278 170.228C84.9522 167.08 88.745 167.079 92 167L67 166z"/>
<path style="fill:#b2e99b; stroke:none;" d="M338 166L339 167L338 166z"/>
<path style="fill:#cff1c0; stroke:none;" d="M339 166L340 167L339 166M68.6667 167.333L69.3333 167.667L68.6667 167.333z"/>
<path style="fill:#b2e99b; stroke:none;" d="M70 167L71 168L70 167z"/>
<path style="fill:#98e179; stroke:none;" d="M71 167L72 168L71 167M85 167L86 168L85 167z"/>
<path style="fill:#b2e99b; stroke:none;" d="M86 167L87 168L86 167z"/>
<path style="fill:#cff1c0; stroke:none;" d="M87 167L87 168L90 168L87 167M311 167L312 168L311 167z"/>
<path style="fill:#98e179; stroke:none;" d="M312 167L313 168L312 167M322 167L323 168L322 167z"/>
<path style="fill:#cff1c0; stroke:none;" d="M322 168L322 169L328 168L322 168z"/>
<path style="fill:#ffffff; stroke:none;" d="M322 186C325.813 186 330.282 186.631 333.995 185.682C350.153 181.554 331.245 158.891 323.028 169.59C320.344 173.084 322 181.771 322 186z"/>
<path style="fill:#cff1c0; stroke:none;" d="M329 167L329 168L332 168L329 167z"/>
<path style="fill:#b2e99b; stroke:none;" d="M332 167L333 168L332 167z"/>
<path style="fill:#98e179; stroke:none;" d="M333 167L334 168L333 167z"/>
<path style="fill:#b2e99b; stroke:none;" d="M341 167L342 168L341 167z"/>
<path style="fill:#cff1c0; stroke:none;" d="M72 168L73 169L72 168z"/>
<path style="fill:#98e179; stroke:none;" d="M73 168L74 169L73 168z"/>
<path style="fill:#cff1c0; stroke:none;" d="M83 168L84 169L83 168z"/>
<path style="fill:#b2e99b; stroke:none;" d="M313 168L314 169L313 168z"/>
<path style="fill:#cff1c0; stroke:none;" d="M334 168L335 169L334 168z"/>
<path style="fill:#98e179; stroke:none;" d="M335 168L336 169L335 168z"/>
<path style="fill:#cff1c0; stroke:none;" d="M343 168L344 169L343 168z"/>
<path style="fill:#b2e99b; stroke:none;" d="M74 169L75 170L74 169M82.3333 169.667L82.6667 170.333L82.3333 169.667z"/>
<path style="fill:#cff1c0; stroke:none;" d="M336 169L337 170L336 169z"/>
<path style="fill:#b2e99b; stroke:none;" d="M344 169L345 170L344 169M314 170L315 171L314 170M345 170L346 171L345 170z"/>
<path style="fill:#98e179; stroke:none;" d="M75 171L75 212L76 212C76 200.304 79.5108 181.75 75 171z"/>
<path style="fill:#cff1c0; stroke:none;" d="M82 171L82 213L83 213C83 201.043 86.6107 181.988 82 171M314 171L314 213L315 213C315 201.043 318.611 181.988 314 171M338 171L339 172L338 171M346 171L347 172L346 171z"/>
<path style="fill:#b2e99b; stroke:none;" d="M339 172L340 173L339 172z"/>
<path style="fill:#cff1c0; stroke:none;" d="M339 173L340 174L339 173M347 173L348 174L347 173z"/>
<path style="fill:#98e179; stroke:none;" d="M347 174L348 175L347 174M340 175L341 176L340 175z"/>
<path style="fill:#b2e99b; stroke:none;" d="M340 176L340 180L341 180L340 176z"/>
<path style="fill:#98e179; stroke:none;" d="M340 180L341 181L340 180z"/>
<path style="fill:#b2e99b; stroke:none;" d="M347 180L348 181L347 180z"/>
<path style="fill:#cff1c0; stroke:none;" d="M347 181L348 182L347 181z"/>
<path style="fill:#98e179; stroke:none;" d="M339 182L340 183L339 182z"/>
<path style="fill:#b2e99b; stroke:none;" d="M346 182L347 183L346 182z"/>
<path style="fill:#cff1c0; stroke:none;" d="M338 183L339 184L338 183z"/>
<path style="fill:#98e179; stroke:none;" d="M345 183L346 184L345 183z"/>
<path style="fill:#cff1c0; stroke:none;" d="M337 184L338 185L337 184z"/>
<path style="fill:#98e179; stroke:none;" d="M344 184L345 185L344 184z"/>
<path style="fill:#b2e99b; stroke:none;" d="M336 185L337 186L336 185z"/>
<path style="fill:#98e179; stroke:none;" d="M343 185L344 186L343 185z"/>
<path style="fill:#cff1c0; stroke:none;" d="M322 186L322 187L334 187L322 186z"/>
<path style="fill:#b2e99b; stroke:none;" d="M334 186L335 187L334 186z"/>
<path style="fill:#cff1c0; stroke:none;" d="M342 186L343 187L342 186z"/>
<path style="fill:#98e179; stroke:none;" d="M340 187L341 188L340 187M341 188L342 189L341 188z"/>
<path style="fill:#cff1c0; stroke:none;" d="M342 188L343 189L342 188M322 189L322 211L323 211L322 189z"/>
<path style="fill:#ffffff; stroke:none;" d="M323 189C323 194.93 320.594 207.578 324.028 212.566C326.839 216.651 334.654 215.2 337.892 212.566C345.78 206.15 343.678 193.442 333.996 190.329C330.438 189.186 326.7 189.031 323 189z"/>
<path style="fill:#cff1c0; stroke:none;" d="M330.667 189.333L331.333 189.667L330.667 189.333z"/>
<path style="fill:#b2e99b; stroke:none;" d="M332 189L333 190L332 189z"/>
<path style="fill:#98e179; stroke:none;" d="M333 189L334 190L333 189z"/>
<path style="fill:#b2e99b; stroke:none;" d="M343 189L344 190L343 189z"/>
<path style="fill:#cff1c0; stroke:none;" d="M335 190L336 191L335 190z"/>
<path style="fill:#98e179; stroke:none;" d="M344 190L345 191L344 190z"/>
<path style="fill:#b2e99b; stroke:none;" d="M337 191L338 192L337 191z"/>
<path style="fill:#cff1c0; stroke:none;" d="M338 192L339 193L338 192M340 194L341 195L340 194z"/>
<path style="fill:#98e179; stroke:none;" d="M348 194L349 195L348 194z"/>
<path style="fill:#b2e99b; stroke:none;" d="M341 195L342 196L341 195z"/>
<path style="fill:#cff1c0; stroke:none;" d="M349 195L350 196L349 195z"/>
<path style="fill:#98e179; stroke:none;" d="M349 196L350 197L349 196z"/>
<path style="fill:#b2e99b; stroke:none;" d="M342 197L343 198L342 197z"/>
<path style="fill:#cff1c0; stroke:none;" d="M350 197L351 198L350 197M342 198L343 199L342 198z"/>
<path style="fill:#b2e99b; stroke:none;" d="M350 198L351 199L350 198z"/>
<path style="fill:#98e179; stroke:none;" d="M350 199L351 200L350 199M343.333 201.667L343.667 202.333L343.333 201.667M350 204L351 205L350 204z"/>
<path style="fill:#cff1c0; stroke:none;" d="M109 205L111 207L111 205L109 205M342 205L343 206L342 205z"/>
<path style="fill:#b2e99b; stroke:none;" d="M350 205L351 206L350 205z"/>
<path style="fill:#cff1c0; stroke:none;" d="M108 206L109 207L108 206z"/>
<path style="fill:#b2e99b; stroke:none;" d="M342 206L343 207L342 206z"/>
<path style="fill:#cff1c0; stroke:none;" d="M350 206L351 207L350 206z"/>
<path style="fill:#98e179; stroke:none;" d="M109 207L110 208L109 207M342 207L343 208L342 207M107 208L108 209L107 208z"/>
<path style="fill:#cff1c0; stroke:none;" d="M109 208L110 209L109 208M341 208L342 209L341 208z"/>
<path style="fill:#b2e99b; stroke:none;" d="M349 208L350 209L349 208M106 209L107 210L106 209z"/>
<path style="fill:#98e179; stroke:none;" d="M108 209L109 210L108 209M341 209L342 210L341 209z"/>
<path style="fill:#cff1c0; stroke:none;" d="M105 210L106 211L105 210M108 210L109 211L108 210z"/>
<path style="fill:#b2e99b; stroke:none;" d="M340 210L341 211L340 210M348 210L349 211L348 210z"/>
<path style="fill:#cff1c0; stroke:none;" d="M104 211L105 212L104 211z"/>
<path style="fill:#98e179; stroke:none;" d="M107 211L108 212L107 211z"/>
<path style="fill:#b2e99b; stroke:none;" d="M322 211L323 212L322 211M339 211L340 212L339 211z"/>
<path style="fill:#98e179; stroke:none;" d="M347 211L348 212L347 211z"/>
<path style="fill:#cff1c0; stroke:none;" d="M103 212L104 213L103 212M107 212L108 213L107 212z"/>
<path style="fill:#b2e99b; stroke:none;" d="M338 212L339 213L338 212z"/>
<path style="fill:#98e179; stroke:none;" d="M346 212L347 213L346 212z"/>
<path style="fill:#cff1c0; stroke:none;" d="M74 213L75 214L74 213z"/>
<path style="fill:#98e179; stroke:none;" d="M82 213L83 214L82 213z"/>
<path style="fill:#b2e99b; stroke:none;" d="M102 213L103 214L102 213z"/>
<path style="fill:#98e179; stroke:none;" d="M106 213L107 214L106 213M314 213L315 214L314 213M323 213L324 214L323 213M337 213L338 214L337 213z"/>
<path style="fill:#b2e99b; stroke:none;" d="M345 213L346 214L345 213z"/>
<path style="fill:#cff1c0; stroke:none;" d="M73 214L74 215L73 214z"/>
<path style="fill:#98e179; stroke:none;" d="M83 214L84 215L83 214z"/>
<path style="fill:#b2e99b; stroke:none;" d="M84 214L84 215L100 215L84 214z"/>
<path style="fill:#98e179; stroke:none;" d="M100 214L101 215L100 214z"/>
<path style="fill:#cff1c0; stroke:none;" d="M312 214L313 215L312 214z"/>
<path style="fill:#98e179; stroke:none;" d="M313 214L314 215L313 214z"/>
<path style="fill:#b2e99b; stroke:none;" d="M325 214L326 215L325 214M335 214L336 215L335 214z"/>
<path style="fill:#98e179; stroke:none;" d="M343 214L344 215L343 214z"/>
<path style="fill:#cff1c0; stroke:none;" d="M344 214L345 215L344 214z"/>
<path style="fill:#b2e99b; stroke:none;" d="M72 215L73 216L72 215M105 215L106 216L105 215z"/>
<path style="fill:#cff1c0; stroke:none;" d="M310 215L311 216L310 215z"/>
<path style="fill:#98e179; stroke:none;" d="M311 215L312 216L311 215M327 215L328 216L327 215z"/>
<path style="fill:#b2e99b; stroke:none;" d="M328 215L329 216L328 215z"/>
<path style="fill:#cff1c0; stroke:none;" d="M329.667 215.333L330.333 215.667L329.667 215.333z"/>
<path style="fill:#b2e99b; stroke:none;" d="M331.667 215.333L332.333 215.667L331.667 215.333z"/>
<path style="fill:#98e179; stroke:none;" d="M333 215L334 216L333 215M341 215L342 216L341 215z"/>
<path style="fill:#cff1c0; stroke:none;" d="M342 215L343 216L342 215M66 216L67 217L66 216z"/>
<path style="fill:#b2e99b; stroke:none;" d="M67 216L67 217L70 217L67 216z"/>
<path style="fill:#98e179; stroke:none;" d="M70 216L71 217L70 216z"/>
<path style="fill:#b2e99b; stroke:none;" d="M304 216L304 217L307 217L304 216z"/>
<path style="fill:#98e179; stroke:none;" d="M307 216L308 217L307 216z"/>
<path style="fill:#b2e99b; stroke:none;" d="M339 216L340 217L339 216z"/>
<path style="fill:#cff1c0; stroke:none;" d="M340 216L341 217L340 216z"/>
<path style="fill:#98e179; stroke:none;" d="M66 217L67 218L66 217z"/>
<path style="fill:#b2e99b; stroke:none;" d="M104 217L105 218L104 217z"/>
<path style="fill:#cff1c0; stroke:none;" d="M303 217L304 218L303 217z"/>
<path style="fill:#98e179; stroke:none;" d="M333.667 217.333L334.333 217.667L333.667 217.333z"/>
<path style="fill:#b2e99b; stroke:none;" d="M335 217L336 218L335 217z"/>
<path style="fill:#cff1c0; stroke:none;" d="M336 217L337 218L336 217z"/>
</svg>
