<svg fill="#26e07f" xmlns="http://www.w3.org/2000/svg"  viewBox="0 0 48 48" width="96px" height="96px"><path d="M 19.5 3 C 17.585045 3 16 4.5850452 16 6.5 L 16 23.253906 A 1.50015 1.50015 0 0 0 16 23.740234 L 16 32.5 C 16 34.414955 17.585045 36 19.5 36 L 30.5 36 C 32.414955 36 34 34.414955 34 32.5 L 34 23.746094 A 1.50015 1.50015 0 0 0 34 23.259766 L 34 6.5 C 34 4.5850452 32.414955 3 30.5 3 L 19.5 3 z M 19.5 6 L 30.5 6 C 30.795045 6 31 6.2049548 31 6.5 L 31 22 L 19 22 L 19 6.5 C 19 6.2049548 19.204955 6 19.5 6 z M 11.476562 21.978516 A 1.50015 1.50015 0 0 0 10 23.5 L 10 32.5 C 10 37.728774 14.271226 42 19.5 42 L 23.5 42 L 23.5 46 A 1.50015 1.50015 0 1 0 26.5 46 L 26.5 42 L 30.5 42 C 35.728774 42 40 37.728774 40 32.5 L 40 23.5 A 1.50015 1.50015 0 1 0 37 23.5 L 37 32.5 C 37 36.107226 34.107226 39 30.5 39 L 19.5 39 C 15.892774 39 13 36.107226 13 32.5 L 13 23.5 A 1.50015 1.50015 0 0 0 11.476562 21.978516 z M 19 25 L 31 25 L 31 32.5 C 31 32.795045 30.795045 33 30.5 33 L 19.5 33 C 19.204955 33 19 32.795045 19 32.5 L 19 25 z M 25 27 A 2 2 0 0 0 25 31 A 2 2 0 0 0 25 27 z"/></svg>