<?xml version="1.0" standalone="yes"?>
<svg xmlns="http://www.w3.org/2000/svg" width="90" height="90">
<path style="fill:#cdcdcd; stroke:none;" d="M0 0L0 90L90 90L90 0L0 0z"/>
<path style="fill:#e0e0e0; stroke:none;" d="M19 13L19 14L23 14L19 13M43 13L43 14L47 14L43 13M67 13L67 14L71 14L67 13z"/>
<path style="fill:#ebebeb; stroke:none;" d="M17 14L18 15L17 14z"/>
<path style="fill:#ffffff; stroke:none;" d="M18.1088 14.7461C10.0258 18.0969 15.5978 30.6918 23.8912 27.2539C31.9742 23.9031 26.4022 11.3082 18.1088 14.7461z"/>
<path style="fill:#ebebeb; stroke:none;" d="M24 14L25 15L24 14M41 14L42 15L41 14z"/>
<path style="fill:#ffffff; stroke:none;" d="M42.1088 14.7461C34.0258 18.0969 39.5978 30.6918 47.8912 27.2539C55.9742 23.9031 50.4022 11.3082 42.1088 14.7461z"/>
<path style="fill:#ebebeb; stroke:none;" d="M48 14L49 15L48 14M65 14L66 15L65 14z"/>
<path style="fill:#ffffff; stroke:none;" d="M66.1088 14.7461C58.0258 18.0969 63.5978 30.6918 71.8912 27.2539C79.9742 23.9031 74.4022 11.3082 66.1088 14.7461z"/>
<path style="fill:#ebebeb; stroke:none;" d="M72 14L73 15L72 14z"/>
<path style="fill:#d5d5d5; stroke:none;" d="M15 15L16 16L15 15M26 15L27 16L26 15M39 15L40 16L39 15M50 15L51 16L50 15M63 15L64 16L63 15M74 15L75 16L74 15z"/>
<path style="fill:#ebebeb; stroke:none;" d="M14 17L15 18L14 17M27 17L28 18L27 17M38 17L39 18L38 17M51 17L52 18L51 17M62 17L63 18L62 17M75 17L76 18L75 17z"/>
<path style="fill:#e0e0e0; stroke:none;" d="M13 19L13 23L14 23L13 19M28 19L28 23L29 23L28 19M37 19L37 23L38 23L37 19M52 19L52 23L53 23L52 19M61 19L61 23L62 23L61 19M76 19L76 23L77 23L76 19z"/>
<path style="fill:#ebebeb; stroke:none;" d="M14 24L15 25L14 24M27 24L28 25L27 24M38 24L39 25L38 24M51 24L52 25L51 24M62 24L63 25L62 24M75 24L76 25L75 24z"/>
<path style="fill:#d5d5d5; stroke:none;" d="M15 26L16 27L15 26M26 26L27 27L26 26M39 26L40 27L39 26M50 26L51 27L50 26M63 26L64 27L63 26M74 26L75 27L74 26z"/>
<path style="fill:#ebebeb; stroke:none;" d="M17 27L18 28L17 27M24 27L25 28L24 27M41 27L42 28L41 27M48 27L49 28L48 27M65 27L66 28L65 27M72 27L73 28L72 27z"/>
<path style="fill:#e0e0e0; stroke:none;" d="M19 28L19 29L23 29L19 28M43 28L43 29L47 29L43 28M67 28L67 29L71 29L67 28M19 37L19 38L23 38L19 37M43 37L43 38L47 38L43 37M67 37L67 38L71 38L67 37z"/>
<path style="fill:#ebebeb; stroke:none;" d="M17 38L18 39L17 38z"/>
<path style="fill:#ffffff; stroke:none;" d="M18.1088 38.7461C10.0258 42.0969 15.5978 54.6918 23.8912 51.2539C31.9742 47.9031 26.4022 35.3082 18.1088 38.7461z"/>
<path style="fill:#ebebeb; stroke:none;" d="M24 38L25 39L24 38M41 38L42 39L41 38z"/>
<path style="fill:#ffffff; stroke:none;" d="M42.1088 38.7461C34.0258 42.0969 39.5978 54.6918 47.8912 51.2539C55.9742 47.9031 50.4022 35.3082 42.1088 38.7461z"/>
<path style="fill:#ebebeb; stroke:none;" d="M48 38L49 39L48 38M65 38L66 39L65 38z"/>
<path style="fill:#ffffff; stroke:none;" d="M66.1088 38.7461C58.0258 42.0969 63.5978 54.6918 71.8912 51.2539C79.9742 47.9031 74.4022 35.3082 66.1088 38.7461z"/>
<path style="fill:#ebebeb; stroke:none;" d="M72 38L73 39L72 38z"/>
<path style="fill:#d5d5d5; stroke:none;" d="M15 39L16 40L15 39M26 39L27 40L26 39M39 39L40 40L39 39M50 39L51 40L50 39M63 39L64 40L63 39M74 39L75 40L74 39z"/>
<path style="fill:#ebebeb; stroke:none;" d="M14 41L15 42L14 41M27 41L28 42L27 41M38 41L39 42L38 41M51 41L52 42L51 41M62 41L63 42L62 41M75 41L76 42L75 41z"/>
<path style="fill:#e0e0e0; stroke:none;" d="M13 43L13 47L14 47L13 43M28 43L28 47L29 47L28 43M37 43L37 47L38 47L37 43M52 43L52 47L53 47L52 43M61 43L61 47L62 47L61 43M76 43L76 47L77 47L76 43z"/>
<path style="fill:#ebebeb; stroke:none;" d="M14 48L15 49L14 48M27 48L28 49L27 48M38 48L39 49L38 48M51 48L52 49L51 48M62 48L63 49L62 48M75 48L76 49L75 48z"/>
<path style="fill:#d5d5d5; stroke:none;" d="M15 50L16 51L15 50M26 50L27 51L26 50M39 50L40 51L39 50M50 50L51 51L50 50M63 50L64 51L63 50M74 50L75 51L74 50z"/>
<path style="fill:#ebebeb; stroke:none;" d="M17 51L18 52L17 51M24 51L25 52L24 51M41 51L42 52L41 51M48 51L49 52L48 51M65 51L66 52L65 51M72 51L73 52L72 51z"/>
<path style="fill:#e0e0e0; stroke:none;" d="M19 52L19 53L23 53L19 52M43 52L43 53L47 53L43 52M67 52L67 53L71 53L67 52M19 61L19 62L23 62L19 61M43 61L43 62L47 62L43 61M67 61L67 62L71 62L67 61z"/>
<path style="fill:#ebebeb; stroke:none;" d="M17 62L18 63L17 62z"/>
<path style="fill:#ffffff; stroke:none;" d="M18.1088 62.7461C10.0258 66.0969 15.5978 78.6918 23.8912 75.2539C31.9742 71.9031 26.4022 59.3082 18.1088 62.7461z"/>
<path style="fill:#ebebeb; stroke:none;" d="M24 62L25 63L24 62M41 62L42 63L41 62z"/>
<path style="fill:#ffffff; stroke:none;" d="M42.1088 62.7461C34.0258 66.0969 39.5978 78.6918 47.8912 75.2539C55.9742 71.9031 50.4022 59.3082 42.1088 62.7461z"/>
<path style="fill:#ebebeb; stroke:none;" d="M48 62L49 63L48 62M65 62L66 63L65 62z"/>
<path style="fill:#ffffff; stroke:none;" d="M66.1088 62.7461C58.0258 66.0969 63.5978 78.6918 71.8912 75.2539C79.9742 71.9031 74.4022 59.3082 66.1088 62.7461z"/>
<path style="fill:#ebebeb; stroke:none;" d="M72 62L73 63L72 62z"/>
<path style="fill:#d5d5d5; stroke:none;" d="M15 63L16 64L15 63M26 63L27 64L26 63M39 63L40 64L39 63M50 63L51 64L50 63M63 63L64 64L63 63M74 63L75 64L74 63z"/>
<path style="fill:#ebebeb; stroke:none;" d="M14 65L15 66L14 65M27 65L28 66L27 65M38 65L39 66L38 65M51 65L52 66L51 65M62 65L63 66L62 65M75 65L76 66L75 65z"/>
<path style="fill:#e0e0e0; stroke:none;" d="M13 67L13 71L14 71L13 67M28 67L28 71L29 71L28 67M37 67L37 71L38 71L37 67M52 67L52 71L53 71L52 67M61 67L61 71L62 71L61 67M76 67L76 71L77 71L76 67z"/>
<path style="fill:#ebebeb; stroke:none;" d="M14 72L15 73L14 72M27 72L28 73L27 72M38 72L39 73L38 72M51 72L52 73L51 72M62 72L63 73L62 72M75 72L76 73L75 72z"/>
<path style="fill:#d5d5d5; stroke:none;" d="M15 74L16 75L15 74M26 74L27 75L26 74M39 74L40 75L39 74M50 74L51 75L50 74M63 74L64 75L63 74M74 74L75 75L74 74z"/>
<path style="fill:#ebebeb; stroke:none;" d="M17 75L18 76L17 75M24 75L25 76L24 75M41 75L42 76L41 75M48 75L49 76L48 75M65 75L66 76L65 75M72 75L73 76L72 75z"/>
<path style="fill:#e0e0e0; stroke:none;" d="M19 76L19 77L23 77L19 76M43 76L43 77L47 77L43 76M67 76L67 77L71 77L67 76z"/>
</svg>
