<?xml version="1.0" standalone="yes"?>
<svg xmlns="http://www.w3.org/2000/svg" width="50" height="50">
<path style="fill:#010101; stroke:none;" d="M0 0L0 50L50 50L50 0L0 0z"/>
<path style="fill:#ffffff; stroke:none;" d="M6.3179 5.02778C-0.0549121 9.26356 7.06756 19.3687 13.6821 14.9722C20.0549 10.7364 12.9324 0.631332 6.3179 5.02778M21.3179 5.02778C14.9451 9.26355 22.0676 19.3687 28.6821 14.9722C35.0549 10.7364 27.9324 0.631336 21.3179 5.02778M36.3179 5.02778C29.9451 9.26356 37.0676 19.3687 43.6821 14.9722C50.0549 10.7364 42.9324 0.631336 36.3179 5.02778M6.3179 20.0278C-0.054915 24.2636 7.06756 34.3687 13.6821 29.9722C20.0549 25.7364 12.9324 15.6313 6.3179 20.0278M21.3179 20.0278C14.9451 24.2636 22.0676 34.3687 28.6821 29.9722C35.0549 25.7364 27.9324 15.6313 21.3179 20.0278M36.3179 20.0278C29.9451 24.2636 37.0676 34.3687 43.6821 29.9722C50.0549 25.7364 42.9324 15.6313 36.3179 20.0278M6.3179 35.0278C-0.054915 39.2636 7.06756 49.3687 13.6821 44.9722C20.0549 40.7364 12.9324 30.6313 6.3179 35.0278M21.3179 35.0278C14.9451 39.2636 22.0676 49.3687 28.6821 44.9722C35.0549 40.7364 27.9324 30.6313 21.3179 35.0278M36.3179 35.0278C29.9451 39.2636 37.0676 49.3687 43.6821 44.9722C50.0549 40.7364 42.9324 30.6313 36.3179 35.0278z"/>
</svg>
